<?xml version="1.0" encoding="UTF-8" standalone="no"?>
<svg 
  version="1.1" 
  xmlns="http://www.w3.org/2000/svg" 
  xmlns:xlink="http://www.w3.org/1999/xlink" 
  xmlns:svg="http://www.w3.org/2000/svg"
  xmlns:rdf="http://www.w3.org/1999/02/22-rdf-syntax-ns#"
  xmlns:cc="http://creativecommons.org/ns#"
  xmlns:dc="http://purl.org/dc/elements/1.1/"
  viewBox="0 0 768 768"
  width="768"
  height="768"
>
<style>svg {background-color: white; }</style>"
<metadata id="metadata1">
Created by https://svgstud.io and licensed under CC-BY-SA 4.0 license. Please attribute https://svgstud.io
</metadata>
<metadata id="prompt">
watching computer
</metadata>
<metadata id="version">
7
</metadata>
<metadata id="metadata2">
<rdf:RDF>
<cc:Work
    rdf:about="">
    <cc:license
    rdf:resource="http://creativecommons.org/licenses/by-sa/4.0/" />
    <dc:creator>
        <cc:Agent>
            <dc:title>https://svgstud.io</dc:title>
        </cc:Agent>
    </dc:creator>
</cc:Work>
<cc:License
    rdf:about="http://creativecommons.org/licenses/by-sa/4.0/">
    <cc:permits
    rdf:resource="http://creativecommons.org/ns#Reproduction" />
    <cc:permits
    rdf:resource="http://creativecommons.org/ns#Distribution" />
    <cc:requires
    rdf:resource="http://creativecommons.org/ns#Notice" />
    <cc:requires
    rdf:resource="http://creativecommons.org/ns#Attribution" />
    <cc:permits
    rdf:resource="http://creativecommons.org/ns#DerivativeWorks" />
    <cc:requires
    rdf:resource="http://creativecommons.org/ns#ShareAlike" />
</cc:License>
</rdf:RDF>
</metadata>
<metadata id="uid">
e42ef128cb4a7bb08680e1fd268e901770f9855cf9d8075bb0eab76a4508a947
</metadata>
<path stroke="none" fill="black" fill-rule="evenodd" d="M373.41,745.96C371.10,745.94 359.49,742.32 345.00,737.11C331.52,732.26 312.18,725.29 302.00,721.63C291.82,717.97 279.90,713.65 275.50,712.04C271.10,710.44 259.40,706.20 249.50,702.64C239.60,699.07 218.00,691.14 201.50,685.00C185.00,678.87 160.70,669.88 147.50,665.03C134.30,660.19 122.31,655.75 120.85,655.17C119.39,654.60 117.91,653.67 117.57,653.12C117.23,652.56 116.08,627.22 115.01,596.81C113.95,566.39 112.80,538.24 112.45,534.27C111.83,527.03 111.83,527.03 108.17,526.07C106.15,525.54 102.25,524.58 99.50,523.94C96.75,523.30 92.18,522.13 89.34,521.34C86.41,520.53 83.90,519.18 83.53,518.22C83.18,517.30 81.54,510.07 79.89,502.15C78.25,494.24 77.06,487.61 77.25,487.42C77.44,487.23 84.03,488.65 91.89,490.58C99.76,492.50 116.16,496.28 128.35,498.97C140.53,501.65 161.07,505.94 174.00,508.50C186.93,511.05 207.50,515.16 219.72,517.62C231.94,520.09 247.46,523.70 254.21,525.64C260.97,527.59 267.17,529.59 268.00,530.09C268.94,530.66 266.88,530.77 262.50,530.40C258.65,530.07 251.22,529.20 246.00,528.48C240.78,527.75 228.62,526.03 219.00,524.65C209.38,523.27 199.59,521.93 197.25,521.67C194.91,521.41 193.00,521.50 193.00,521.88C193.00,522.27 198.29,524.14 204.75,526.05C216.50,529.52 216.50,529.52 216.79,558.01C216.95,573.68 216.82,587.96 216.49,589.75C216.17,591.54 215.55,593.00 215.12,593.00C214.68,593.00 213.81,591.88 213.18,590.50C212.56,589.12 211.42,588.00 210.65,588.00C209.78,588.00 209.04,589.57 208.67,592.25C208.34,594.59 208.36,613.08 208.70,633.33C209.31,669.24 209.38,670.20 211.41,671.49C212.56,672.22 221.21,675.40 230.64,678.56C240.56,681.88 248.50,684.02 249.49,683.64C250.86,683.12 251.04,682.42 250.36,680.24C249.89,678.73 249.50,673.23 249.50,668.00C249.50,662.77 250.06,645.73 250.75,630.12C251.44,614.51 252.00,587.40 252.00,569.87C252.00,538.00 252.00,538.00 255.25,538.02C257.04,538.04 260.52,538.52 263.00,539.10C265.48,539.68 282.57,543.24 301.00,547.02C319.43,550.80 342.67,555.59 352.65,557.68C369.42,561.18 371.16,561.37 375.65,560.19C378.32,559.49 400.07,551.07 424.00,541.49C447.93,531.90 476.27,520.51 487.00,516.18C497.73,511.84 521.12,502.11 539.00,494.55C556.88,486.99 589.50,473.15 611.50,463.79C633.50,454.43 659.76,443.20 669.85,438.82C679.94,434.44 694.10,428.18 701.30,424.90C708.51,421.62 715.02,419.18 715.76,419.46C716.66,419.81 717.02,421.27 716.81,423.74C716.53,427.11 715.98,427.78 711.54,430.17C708.82,431.64 706.06,433.56 705.42,434.43C704.60,435.57 704.06,452.27 703.57,492.76C703.18,523.97 702.66,550.25 702.39,551.17C702.13,552.08 693.33,559.51 682.84,567.67C672.35,575.82 660.11,585.29 655.64,588.71C650.82,592.38 646.48,594.93 645.00,594.96C643.62,594.98 635.75,593.86 627.50,592.48C619.25,591.09 605.19,588.57 596.25,586.87C580.00,583.78 580.00,583.78 580.00,579.93C580.00,576.27 579.82,576.06 576.25,575.46C574.19,575.11 567.55,573.94 561.50,572.85C555.45,571.77 539.02,568.61 525.00,565.83C510.98,563.06 492.07,559.52 483.00,557.98C473.93,556.44 466.22,555.48 465.87,555.84C465.53,556.20 464.96,558.80 464.61,561.61C464.13,565.42 464.33,567.03 465.38,567.90C466.16,568.55 470.56,570.11 475.15,571.38C479.74,572.65 484.85,574.38 486.50,575.24C488.15,576.09 490.31,577.69 491.30,578.77C492.28,579.86 493.35,582.40 493.68,584.42C494.23,587.78 493.90,588.43 489.73,592.43C487.04,595.02 482.89,597.65 479.52,598.91C476.41,600.07 470.85,601.36 467.18,601.76C460.50,602.50 460.50,602.50 460.24,647.67C459.98,692.84 459.98,692.84 457.10,695.27C455.51,696.60 444.83,703.68 433.36,710.99C421.89,718.31 406.65,728.00 399.50,732.52C392.35,737.04 384.44,741.92 381.91,743.37C379.03,745.02 375.87,745.98 373.41,745.96zM361.64,730.91C362.44,730.97 362.95,725.24 363.35,711.75C363.67,701.16 364.48,667.98 365.17,638.00C365.85,608.02 366.43,580.58 366.46,577.00C366.50,570.51 366.50,570.51 358.56,568.25C352.98,566.66 350.30,566.30 349.56,567.04C348.88,567.72 348.32,579.82 348.00,600.87C347.50,633.65 347.50,633.65 344.86,637.58C343.41,639.73 339.51,644.61 336.21,648.40C332.90,652.20 329.92,656.64 329.59,658.28C329.27,659.91 329.00,673.71 329.00,688.93C329.00,709.54 329.32,717.03 330.25,718.25C330.94,719.14 338.02,722.34 346.00,725.35C353.98,728.37 361.01,730.87 361.64,730.91zM473.54,718.00C473.24,718.00 473.00,717.62 473.00,717.16C473.00,716.70 476.04,713.42 479.75,709.88C483.46,706.33 489.88,700.70 494.00,697.36C498.12,694.03 510.23,684.92 520.89,677.12C531.55,669.32 543.16,661.33 546.69,659.36C550.22,657.38 553.37,656.04 553.69,656.36C554.02,656.69 553.66,657.71 552.89,658.63C552.13,659.56 547.90,663.30 543.50,666.94C539.10,670.58 531.69,676.44 527.04,679.96C522.39,683.48 510.25,692.62 500.06,700.28C489.87,707.93 479.86,715.05 477.81,716.10C475.76,717.14 473.84,718.00 473.54,718.00zM103.25,639.92C102.29,639.88 95.83,638.10 88.90,635.97C81.97,633.84 71.62,630.39 65.90,628.29C59.18,625.83 55.50,623.97 55.50,623.02C55.50,622.19 57.64,620.76 60.50,619.69C63.25,618.66 72.25,615.89 80.50,613.54C88.75,611.19 97.35,608.98 99.62,608.64C103.74,608.02 103.74,608.02 104.36,611.76C104.70,613.82 104.98,621.01 104.99,627.75C105.00,638.78 104.83,639.99 103.25,639.92zM607.19,627.00C606.54,627.00 606.00,626.60 606.00,626.12C606.00,625.64 609.04,622.38 612.76,618.87C616.48,615.37 622.44,610.43 626.01,607.90C629.58,605.37 633.55,602.75 634.84,602.07C636.12,601.39 637.39,601.06 637.66,601.33C637.93,601.60 636.48,603.67 634.44,605.94C632.39,608.20 625.69,613.87 619.55,618.53C613.41,623.19 607.84,627.00 607.19,627.00zM643.99,569.51C644.47,569.21 645.69,565.48 646.69,561.23C648.22,554.71 648.47,549.52 648.33,528.00C648.24,513.98 647.79,500.26 647.32,497.51C646.74,494.04 645.96,492.42 644.78,492.20C643.62,491.97 642.82,492.78 642.29,494.68C641.85,496.23 641.50,512.12 641.50,530.00C641.50,547.88 641.86,564.20 642.30,566.28C642.74,568.36 643.50,569.81 643.99,569.51zM329.00,512.24C326.52,512.48 322.48,512.37 320.00,511.99C317.52,511.62 304.48,509.18 291.00,506.58C277.52,503.98 259.30,500.53 250.50,498.92C241.70,497.31 232.10,495.50 229.16,494.91C224.98,494.06 222.65,492.76 218.40,488.91C215.42,486.21 212.65,483.99 212.24,483.99C211.83,483.98 204.75,482.85 196.50,481.47C188.25,480.09 176.78,477.84 171.00,476.46C165.22,475.08 157.71,473.04 154.30,471.91C148.10,469.87 148.10,469.87 116.80,475.48C99.59,478.57 84.31,481.32 82.85,481.60C80.54,482.05 80.06,481.68 79.17,478.81C78.61,476.99 75.82,466.27 72.99,455.00C70.15,443.73 65.22,424.82 62.04,413.00C58.85,401.18 54.75,385.31 52.91,377.75C49.79,364.87 49.68,363.89 51.25,362.32C52.62,360.96 55.57,360.56 66.92,360.19C74.61,359.95 81.61,360.02 82.47,360.35C83.80,360.86 83.84,361.29 82.77,363.04C81.65,364.88 81.82,365.35 84.28,367.17C86.46,368.77 86.82,369.51 85.93,370.59C85.04,371.66 85.70,372.98 89.00,376.73C91.31,379.35 93.84,382.74 94.63,384.25C95.41,385.76 96.48,387.00 97.00,387.00C97.52,387.00 98.63,388.32 99.47,389.94C100.30,391.55 100.73,393.55 100.41,394.38C100.09,395.21 101.18,397.85 102.82,400.24C104.47,402.64 105.93,405.25 106.07,406.05C106.20,406.85 105.97,408.29 105.55,409.26C105.01,410.49 105.65,412.11 107.64,414.61C109.21,416.58 111.30,419.39 112.27,420.85C113.54,422.74 113.87,424.55 113.45,427.17C112.95,430.21 113.21,431.04 114.89,431.94C116.02,432.54 118.15,435.11 119.63,437.64C122.33,442.24 122.33,442.24 120.09,443.93C118.27,445.30 118.10,445.84 119.17,446.73C119.91,447.34 122.75,448.74 125.50,449.84C128.25,450.95 134.10,453.80 138.50,456.17C144.59,459.47 146.84,461.28 147.93,463.75C148.72,465.54 149.90,467.00 150.57,467.00C151.23,467.00 153.01,466.36 154.53,465.57C156.05,464.78 161.29,463.59 166.18,462.92C171.06,462.25 175.36,461.22 175.73,460.63C176.09,460.04 176.67,453.92 177.01,447.03C177.42,438.63 177.28,434.26 176.56,433.78C175.98,433.38 173.03,432.57 170.00,431.98C166.97,431.39 160.83,429.80 156.33,428.45C150.29,426.63 147.52,425.22 145.67,423.02C144.29,421.38 142.87,418.57 142.51,416.77C142.15,414.97 141.22,410.80 140.45,407.50C139.67,404.20 136.98,392.73 134.45,382.00C131.93,371.27 127.46,350.35 124.53,335.50C121.60,320.65 118.17,302.13 116.91,294.33C115.00,282.54 114.84,279.90 115.93,278.58C116.65,277.71 117.75,277.00 118.37,277.01C118.99,277.01 121.30,280.39 123.49,284.51C125.69,288.63 127.81,292.00 128.22,292.00C128.62,292.00 129.72,290.83 130.66,289.40C132.36,286.81 132.36,286.81 134.07,290.15C135.01,291.99 136.94,299.35 138.34,306.50C139.75,313.65 143.37,333.90 146.38,351.50C149.40,369.10 152.35,386.88 152.94,391.00C153.54,395.12 154.13,400.51 154.26,402.97C154.49,407.35 154.59,407.46 158.50,408.20C160.70,408.61 174.65,410.35 189.50,412.07C207.76,414.19 220.83,415.18 229.88,415.12C237.23,415.08 244.77,414.76 246.63,414.41C250.00,413.78 250.00,413.78 250.00,404.89C250.00,396.00 250.00,396.00 234.02,396.00C221.90,396.00 217.10,395.62 214.16,394.45C211.94,393.56 209.78,391.82 209.14,390.40C208.51,389.03 208.00,387.48 208.00,386.95C208.00,386.43 209.32,386.00 210.93,386.00C212.55,386.00 215.10,386.47 216.60,387.04C218.46,387.74 222.22,387.76 228.41,387.08C233.41,386.54 245.15,385.60 254.50,385.00C263.85,384.40 274.89,383.50 279.04,383.01C283.19,382.51 287.87,381.62 289.43,381.03C291.00,380.43 292.06,379.72 291.78,379.45C291.51,379.18 281.25,379.64 268.97,380.48C256.70,381.32 242.23,382.00 236.83,382.00C228.71,382.00 226.69,381.69 225.21,380.21C224.01,379.01 222.34,373.12 220.18,362.46C218.40,353.68 214.91,336.15 212.42,323.50C209.93,310.85 205.67,288.04 202.95,272.81C200.23,257.58 198.00,243.75 198.00,242.08C198.00,239.94 198.74,238.56 200.53,237.39C201.97,236.44 205.97,235.52 209.81,235.25C213.52,234.98 227.35,235.29 240.53,235.93C253.71,236.57 274.40,237.97 286.50,239.05C298.60,240.13 312.10,241.51 316.50,242.10C320.90,242.70 326.19,243.61 328.25,244.13C331.11,244.85 332.32,245.84 333.34,248.29C334.07,250.06 335.86,256.45 337.31,262.50C338.77,268.55 341.97,282.27 344.42,293.00C346.87,303.73 350.73,321.95 353.01,333.50C355.28,345.05 357.23,357.86 357.32,361.98C357.50,369.45 357.50,369.45 354.00,371.19C352.07,372.14 347.80,374.11 344.50,375.57C340.84,377.18 328.57,380.23 313.00,383.39C287.50,388.57 287.50,388.57 287.50,401.74C287.50,410.46 287.90,415.30 288.67,416.07C289.57,416.97 290.55,416.75 292.83,415.12C294.49,413.94 297.34,413.00 299.27,413.00C301.26,413.00 303.85,413.88 305.37,415.07C306.81,416.21 308.00,417.64 308.00,418.24C308.00,418.85 308.69,420.10 309.53,421.04C310.92,422.57 310.83,422.88 308.56,424.37C307.18,425.27 303.47,426.68 300.32,427.51C297.16,428.33 291.73,429.00 288.25,429.00C284.77,429.00 277.55,428.54 272.21,427.98C266.87,427.42 259.49,426.25 255.82,425.39C252.15,424.53 248.21,424.12 247.07,424.48C245.93,424.84 245.00,425.77 245.00,426.54C245.00,427.38 247.12,428.55 250.25,429.45C253.14,430.28 258.66,431.62 262.53,432.42C266.39,433.22 276.29,434.60 284.53,435.48C292.76,436.36 299.95,437.23 300.50,437.42C301.05,437.60 300.38,438.02 299.00,438.35C297.62,438.68 285.93,440.39 273.00,442.15C257.41,444.27 245.80,445.32 238.50,445.25C231.81,445.20 219.69,443.97 207.56,442.14C196.59,440.48 187.26,439.34 186.81,439.62C186.36,439.89 186.00,440.74 186.00,441.49C186.00,442.25 186.79,443.10 187.75,443.40C188.71,443.69 194.76,445.06 201.19,446.44C207.63,447.81 215.73,449.89 219.19,451.06C222.66,452.22 235.18,458.64 247.00,465.31C258.82,471.98 277.73,482.19 289.00,487.99C300.27,493.79 311.75,499.96 314.51,501.71C319.52,504.87 319.52,504.87 336.01,499.90C345.08,497.16 357.68,493.34 364.00,491.41C370.32,489.48 394.62,481.57 418.00,473.85C441.38,466.12 466.57,457.55 474.00,454.81C481.43,452.07 494.61,447.36 503.30,444.33C515.97,439.92 519.38,439.07 520.55,440.04C521.35,440.70 522.00,442.49 522.00,444.02C522.00,446.50 521.31,447.06 515.25,449.49C511.54,450.98 499.73,455.34 489.00,459.19C478.27,463.03 456.68,470.68 441.00,476.18C425.32,481.69 397.88,491.10 380.00,497.11C362.12,503.11 344.35,508.88 340.50,509.92C336.65,510.96 331.48,512.00 329.00,512.24zM319.64,488.99C317.91,488.99 313.35,487.35 309.50,485.36C305.65,483.36 294.40,477.21 284.50,471.69C274.60,466.16 264.02,460.19 261.00,458.41C257.98,456.64 254.41,454.02 253.08,452.59C251.74,451.17 251.17,450.00 251.80,450.00C252.42,450.00 257.57,449.34 263.22,448.54C268.87,447.73 277.92,446.87 283.32,446.63C288.72,446.39 293.41,445.92 293.74,445.60C294.07,445.27 293.58,445.00 292.67,445.00C291.75,445.00 291.00,444.60 291.00,444.12C291.00,443.63 292.01,442.96 293.25,442.63C294.49,442.30 297.16,442.02 299.20,442.01C301.74,442.00 303.74,441.22 305.59,439.50C307.15,438.06 309.49,437.00 311.13,437.00C312.69,437.00 317.01,436.52 320.73,435.93C324.45,435.34 335.38,433.53 345.00,431.91C354.62,430.28 370.07,427.77 379.32,426.34C393.83,424.09 396.67,423.90 399.96,424.99C402.05,425.68 404.37,426.04 405.11,425.80C406.03,425.49 405.66,424.82 403.94,423.70C402.15,422.52 397.30,421.75 386.96,421.00C379.01,420.43 368.90,419.48 364.50,418.90C360.10,418.32 354.48,417.24 352.00,416.50C349.52,415.76 344.80,414.86 341.50,414.50C338.20,414.14 331.47,412.98 326.55,411.93C321.63,410.87 317.18,409.58 316.66,409.06C316.06,408.46 316.79,407.81 318.61,407.31C320.20,406.86 328.55,406.50 337.17,406.50C345.78,406.50 353.21,406.88 353.67,407.35C354.13,407.81 352.94,409.50 351.04,411.10C347.58,414.00 347.58,414.00 358.04,414.02C363.79,414.03 372.77,414.52 378.00,415.12C383.23,415.71 390.88,416.15 395.00,416.10C399.12,416.04 406.23,416.73 410.79,417.62C418.68,419.15 419.18,419.14 421.10,417.41C422.30,416.33 424.60,415.61 426.80,415.62C428.84,415.64 435.90,415.94 442.50,416.28C450.22,416.69 458.12,417.84 464.65,419.49C470.24,420.91 480.14,424.23 486.65,426.87C493.17,429.50 499.78,432.34 501.35,433.16C504.19,434.66 504.19,434.66 497.85,436.87C494.36,438.09 483.18,441.57 473.00,444.61C462.82,447.65 445.27,453.07 434.00,456.67C422.73,460.26 412.15,463.57 410.50,464.03C408.85,464.48 399.62,467.35 390.00,470.40C380.38,473.45 366.43,477.57 359.00,479.56C351.57,481.55 340.39,484.49 334.14,486.09C327.90,487.69 321.37,489.00 319.64,488.99zM315.29,475.00C315.78,475.00 317.47,474.24 319.04,473.32C321.49,471.87 322.40,471.81 325.74,472.91C328.71,473.89 330.56,473.93 333.80,473.05C336.24,472.40 338.00,471.33 338.00,470.50C338.00,469.71 337.06,468.57 335.91,467.95C334.44,467.17 333.02,467.14 331.16,467.86C329.70,468.42 326.70,469.14 324.50,469.46C322.30,469.78 318.55,470.22 316.17,470.43C313.79,470.65 311.54,471.13 311.17,471.49C310.80,471.86 311.38,472.80 312.44,473.58C313.51,474.36 314.79,475.00 315.29,475.00zM352.50,466.40C353.60,466.19 366.43,463.06 381.00,459.44C395.57,455.83 411.55,451.72 416.50,450.31C421.45,448.90 426.34,447.32 427.37,446.78C429.10,445.87 429.12,445.69 427.58,444.15C426.04,442.62 424.65,442.83 407.71,447.24C397.70,449.84 379.49,454.55 367.25,457.70C355.01,460.85 345.00,463.74 345.00,464.13C345.00,464.52 346.24,465.27 347.75,465.81C349.26,466.35 351.40,466.62 352.50,466.40zM306.78,465.18C308.03,464.95 309.52,463.90 310.07,462.86C310.83,461.44 310.73,460.83 309.64,460.42C308.84,460.11 306.44,460.45 304.29,461.18C302.14,461.91 300.27,462.95 300.13,463.50C299.99,464.05 300.92,464.75 302.19,465.05C303.46,465.36 305.53,465.42 306.78,465.18zM286.00,460.00C286.89,460.00 288.45,459.39 289.46,458.65C290.47,457.91 290.90,457.07 290.40,456.78C289.91,456.50 287.85,455.96 285.83,455.60C283.43,455.17 281.90,455.35 281.43,456.12C281.01,456.79 281.49,457.89 282.54,458.65C283.55,459.39 285.11,460.00 286.00,460.00zM329.19,459.98C331.22,459.99 333.19,459.50 333.57,458.89C333.95,458.28 333.64,457.38 332.88,456.90C332.12,456.42 330.46,456.02 329.18,456.02C327.91,456.01 325.94,456.50 324.80,457.11C323.14,458.00 323.00,458.39 324.11,459.09C324.88,459.57 327.16,459.98 329.19,459.98zM450.25,440.93C450.66,440.97 451.00,440.63 451.00,440.17C451.00,439.72 449.99,438.43 448.75,437.30C447.51,436.17 445.52,434.74 444.32,434.12C443.11,433.51 441.00,433.00 439.62,433.00C438.25,433.00 436.85,433.43 436.53,433.96C436.20,434.48 437.37,435.66 439.12,436.56C440.88,437.47 443.93,438.81 445.91,439.54C447.88,440.26 449.84,440.89 450.25,440.93zM220.79,430.55C223.15,430.38 225.96,429.44 227.04,428.46C228.12,427.49 229.00,426.08 229.00,425.35C229.00,424.61 228.30,424.00 227.46,424.00C226.61,424.00 223.01,424.73 219.46,425.62C215.64,426.58 213.00,427.78 213.00,428.55C213.00,429.27 213.79,430.08 214.75,430.36C215.71,430.64 218.43,430.73 220.79,430.55zM628.61,430.87C621.95,430.80 613.41,430.38 609.63,429.94C605.85,429.50 600.61,428.63 597.99,428.00C595.37,427.37 592.27,425.97 591.11,424.89C589.95,423.81 589.01,422.15 589.01,421.21C589.02,420.27 589.31,418.46 589.65,417.18C590.01,415.83 593.20,412.80 597.29,409.93C601.15,407.22 603.68,404.95 602.91,404.89C602.13,404.83 600.38,404.88 599.00,404.99C597.62,405.11 595.15,405.89 593.50,406.71C591.85,407.54 588.70,409.95 586.50,412.06C584.30,414.17 580.28,416.88 577.56,418.08C574.84,419.28 569.89,420.48 566.56,420.75C563.23,421.01 555.77,420.73 550.00,420.11C544.23,419.49 530.27,418.11 519.00,417.03C507.73,415.95 489.76,414.16 479.08,413.04C465.64,411.63 458.89,410.51 457.18,409.38C455.20,408.08 453.35,407.89 448.10,408.43C444.47,408.81 437.23,409.51 432.00,409.99C426.77,410.46 419.93,411.52 416.79,412.33C411.87,413.60 409.82,413.62 402.07,412.46C397.12,411.72 391.37,410.64 389.29,410.06C387.20,409.48 384.09,409.01 382.37,409.01C380.65,409.00 378.71,408.36 378.06,407.57C377.11,406.43 377.26,405.76 378.77,404.32C379.82,403.32 381.54,401.96 382.59,401.31C384.16,400.33 382.92,400.11 375.65,400.06C370.79,400.03 364.40,399.30 361.45,398.44C357.45,397.28 355.18,397.13 352.55,397.86C350.25,398.49 348.80,398.49 348.41,397.86C348.08,397.32 348.36,395.55 349.03,393.92C349.72,392.26 350.03,388.97 349.74,386.41C349.28,382.33 349.48,381.74 351.61,380.77C353.53,379.89 354.37,380.03 355.97,381.47C357.82,383.15 358.10,383.16 360.22,381.61C361.48,380.69 364.75,378.15 367.50,375.96C370.25,373.76 374.20,371.45 376.28,370.82C379.47,369.85 380.66,369.94 383.78,371.43C387.49,373.20 387.49,373.20 384.00,375.07C382.07,376.10 378.93,378.27 377.01,379.89C375.08,381.52 373.84,383.18 374.25,383.58C374.66,383.99 377.80,383.50 381.24,382.49C384.68,381.48 388.40,379.90 389.50,378.96C390.60,378.03 392.71,376.98 394.19,376.63C396.08,376.18 397.24,374.97 398.14,372.50C399.28,369.34 399.77,369.00 403.17,369.00C405.97,369.00 407.85,369.81 410.54,372.17C414.15,375.34 414.15,375.34 416.47,372.44C418.78,369.54 418.78,369.54 424.64,370.88C427.86,371.61 431.85,372.44 433.50,372.72C435.96,373.14 436.27,372.99 435.25,371.92C434.56,371.19 434.00,370.00 434.00,369.26C434.00,368.25 434.47,368.18 435.93,368.96C437.00,369.53 439.02,370.00 440.43,370.00C441.85,370.00 443.00,369.54 443.00,368.99C443.00,368.43 440.50,366.37 437.44,364.42C434.38,362.46 432.05,360.33 432.27,359.68C432.48,359.03 433.97,358.38 435.58,358.23C437.18,358.07 439.51,357.73 440.75,357.46C441.99,357.18 443.00,356.56 443.00,356.06C443.00,355.57 441.40,354.17 439.45,352.97C436.88,351.38 435.98,350.17 436.20,348.63C436.45,346.85 437.28,346.45 441.25,346.20C444.55,345.98 446.00,345.46 446.00,344.46C446.00,343.68 444.89,342.76 443.54,342.42C442.19,342.08 440.60,341.23 440.02,340.52C439.25,339.59 439.44,338.39 440.73,336.14C442.12,333.70 442.26,332.66 441.36,331.21C440.56,329.92 440.44,326.23 440.97,318.90C441.44,312.45 442.37,307.19 443.39,305.21C444.30,303.45 445.38,302.00 445.78,302.00C446.17,302.00 446.54,305.49 446.60,309.75C446.65,314.01 447.48,320.42 448.43,323.98C449.39,327.54 454.75,339.59 460.34,350.76C465.93,361.93 470.63,370.45 470.79,369.70C470.95,368.95 469.04,362.19 466.54,354.68C463.25,344.78 462.00,339.43 462.01,335.26C462.01,332.09 462.68,325.07 463.49,319.66C464.56,312.57 464.68,309.27 463.92,307.85C463.34,306.77 462.35,306.05 461.73,306.26C461.10,306.47 460.21,308.13 459.73,309.95C459.26,311.77 458.16,314.35 457.28,315.69C456.08,317.53 455.49,317.80 454.86,316.81C454.40,316.09 454.02,314.36 454.02,312.97C454.01,311.58 454.66,309.50 455.46,308.35C456.27,307.20 456.64,305.98 456.29,305.63C455.94,305.28 456.55,303.98 457.63,302.75C458.71,301.51 460.87,298.60 462.42,296.28C464.50,293.15 465.06,291.38 464.58,289.44C464.21,288.00 462.83,285.74 461.50,284.41C459.70,282.61 458.00,282.00 454.77,282.00C452.39,282.00 449.44,281.30 448.22,280.44C447.00,279.59 446.00,278.50 446.00,278.03C446.00,277.55 448.35,276.66 451.22,276.05C454.09,275.43 459.66,273.38 463.60,271.48C467.54,269.59 472.16,266.44 473.88,264.49C476.40,261.61 477.00,260.05 477.00,256.36C477.00,252.94 477.34,251.92 478.35,252.30C479.08,252.59 481.52,252.00 483.76,250.99C486.01,249.99 488.32,248.26 488.92,247.15C489.51,246.04 490.00,244.34 490.00,243.38C490.00,241.93 489.52,242.08 487.22,244.29C485.69,245.75 482.96,247.47 481.15,248.10C478.68,248.96 477.56,248.96 476.71,248.11C476.08,247.48 474.65,245.06 473.53,242.73C471.67,238.86 471.12,238.46 467.00,237.97C464.52,237.68 461.91,237.08 461.19,236.63C460.30,236.07 458.65,237.13 456.09,239.90C453.91,242.26 451.39,244.00 450.15,244.00C448.97,244.00 448.00,243.58 448.00,243.07C448.00,242.56 447.00,242.00 445.78,241.82C444.57,241.64 442.54,239.97 441.28,238.10C440.03,236.23 439.00,233.29 439.00,231.55C439.00,229.82 439.56,227.80 440.25,227.07C441.25,226.01 441.24,225.66 440.19,225.27C439.48,225.01 438.01,223.86 436.94,222.71C435.57,221.23 435.00,219.19 435.00,215.71C435.00,212.20 435.79,209.39 437.75,205.90C439.26,203.21 440.81,201.00 441.18,201.00C441.56,201.00 442.12,201.79 442.42,202.75C442.73,203.71 444.14,205.76 445.57,207.29C447.30,209.15 448.77,209.89 450.00,209.50C451.01,209.18 452.12,209.39 452.47,209.96C452.83,210.53 453.77,211.00 454.56,211.00C455.58,211.00 456.00,209.80 456.00,206.84C456.00,202.69 456.00,202.69 462.07,208.91C465.40,212.32 468.66,214.95 469.32,214.73C469.97,214.52 470.64,213.37 470.82,212.17C471.00,210.98 471.38,210.00 471.68,210.00C471.98,210.00 473.96,211.91 476.07,214.25C479.73,218.29 479.92,218.38 479.97,216.00C480.01,214.62 480.44,212.85 480.94,212.06C481.69,210.88 482.29,210.84 484.18,211.82C485.46,212.48 488.45,214.59 490.83,216.51C493.21,218.43 495.57,220.00 496.08,220.00C496.58,220.00 497.00,218.79 497.00,217.30C497.00,214.61 497.00,214.61 500.47,217.97C503.33,220.75 504.04,221.05 504.55,219.72C504.89,218.83 504.42,215.50 503.51,212.30C502.59,209.11 500.76,204.64 499.45,202.37C498.13,200.09 496.33,197.96 495.44,197.61C494.55,197.27 493.43,197.23 492.96,197.52C492.49,197.81 492.76,199.91 493.56,202.18C494.37,204.45 494.78,206.55 494.49,206.84C494.20,207.14 491.93,205.38 489.44,202.94C485.85,199.42 484.74,198.80 484.04,199.94C483.30,201.13 482.50,200.92 479.32,198.73C477.22,197.28 473.84,195.40 471.81,194.56C468.25,193.08 468.06,193.11 466.27,195.39C464.41,197.75 464.41,197.75 461.65,195.37C460.13,194.07 458.28,193.00 457.53,193.00C456.78,193.00 455.30,194.19 454.24,195.65C452.30,198.30 452.30,198.30 450.15,196.15C448.97,194.97 447.14,194.00 446.09,194.00C445.04,194.00 441.98,195.74 439.30,197.86C436.00,200.46 434.01,202.97 433.15,205.61C432.46,207.75 431.62,213.19 431.30,217.71C430.73,225.77 430.77,225.94 433.26,227.07C434.65,227.71 436.22,229.17 436.73,230.32C437.28,231.55 437.32,234.28 436.82,236.91C436.34,239.51 434.89,242.55 433.40,244.11C431.61,245.98 431.00,247.43 431.44,248.82C431.79,249.92 432.73,251.36 433.52,252.01C434.63,252.94 436.08,252.94 439.90,252.02C442.62,251.37 445.11,250.15 445.44,249.31C445.90,248.09 446.32,248.02 447.47,248.98C448.74,250.03 448.72,250.49 447.35,252.59C446.48,253.92 444.36,255.38 442.63,255.83C440.91,256.29 438.38,256.37 437.00,256.01C435.62,255.65 433.45,253.82 432.17,251.93C430.48,249.45 429.98,247.61 430.35,245.30C430.75,242.78 430.46,241.96 429.01,241.50C427.99,241.18 425.57,239.16 423.63,237.02C421.70,234.87 419.81,231.52 419.45,229.57C419.08,227.61 418.96,222.56 419.17,218.33C419.42,213.36 420.00,210.50 420.81,210.23C421.50,210.00 423.15,207.67 424.48,205.05C425.81,202.42 429.14,197.82 431.89,194.81C434.74,191.69 439.61,187.88 443.20,185.96C448.82,182.94 450.52,182.54 459.00,182.19C464.23,181.97 471.20,182.29 474.50,182.89C477.80,183.49 483.85,185.63 487.95,187.65C492.18,189.72 497.44,193.35 500.12,196.02C502.71,198.62 506.01,203.05 507.44,205.88C508.88,208.71 510.77,213.84 511.65,217.27C512.91,222.15 513.09,225.66 512.50,233.50C512.09,239.00 511.74,245.30 511.73,247.50C511.72,249.70 512.72,254.19 513.94,257.47C515.56,261.81 515.84,263.55 514.96,263.85C514.30,264.07 510.77,266.81 507.13,269.94C500.85,275.33 500.02,276.59 491.50,293.57C482.50,311.50 482.50,311.50 477.28,311.80C472.21,312.09 472.04,312.21 471.00,315.80C470.41,317.84 469.66,322.48 469.33,326.13C469.00,329.77 469.02,334.27 469.38,336.13C469.74,337.98 470.46,340.17 470.98,341.00C471.80,342.31 472.08,342.29 473.21,340.84C473.92,339.93 478.30,338.24 482.94,337.09C487.58,335.94 492.00,335.00 492.76,335.00C493.70,335.00 493.94,335.71 493.52,337.25C492.90,339.47 492.92,339.47 494.51,337.50C495.40,336.40 498.11,331.45 500.54,326.50C503.89,319.67 505.34,315.13 506.56,307.65C507.45,302.23 509.01,295.36 510.04,292.40C511.06,289.43 513.53,284.53 515.53,281.52C517.54,278.50 520.82,274.74 522.84,273.16C524.85,271.58 527.48,269.77 528.68,269.14C529.89,268.52 532.67,268.00 534.88,268.00C537.08,268.00 539.15,268.43 539.47,268.96C539.80,269.48 538.81,270.57 537.28,271.37C535.75,272.17 533.29,274.10 531.80,275.66C530.32,277.22 528.43,280.11 527.61,282.08C526.79,284.05 525.81,287.97 525.43,290.79C525.06,293.61 525.04,296.67 525.39,297.58C525.91,298.93 526.58,298.51 528.88,295.38C530.45,293.24 532.91,290.41 534.36,289.08C536.90,286.74 537.00,286.73 537.00,288.70C537.00,289.83 537.67,291.31 538.49,291.99C539.59,292.90 539.82,294.30 539.35,297.23C538.75,300.98 538.83,301.16 540.68,300.17C541.77,299.59 544.98,297.03 547.81,294.48C550.64,291.94 553.36,290.10 553.85,290.41C554.34,290.71 555.28,292.27 555.95,293.88C556.94,296.28 556.88,297.33 555.58,299.85C554.71,301.52 552.41,304.11 550.45,305.60C548.50,307.09 546.43,309.21 545.84,310.30C544.82,312.20 545.01,312.26 549.90,311.61C552.72,311.23 555.62,310.70 556.34,310.42C557.07,310.14 559.54,306.39 561.83,302.09C564.12,297.78 566.00,293.00 566.00,291.46C566.00,289.93 566.20,288.86 566.43,289.10C566.67,289.34 568.06,295.53 569.51,302.85C571.19,311.33 571.92,317.53 571.52,319.90C571.08,322.46 572.28,330.54 575.34,345.65C577.89,358.24 580.72,369.49 581.96,371.92C583.74,375.42 584.00,377.11 583.45,381.58C582.77,387.00 582.77,387.00 588.69,387.00C593.64,387.00 595.98,387.69 603.05,391.22C607.70,393.53 611.87,395.61 612.33,395.83C612.79,396.04 612.45,394.84 611.58,393.16C610.71,391.48 610.00,389.40 610.00,388.55C610.00,387.70 610.47,387.00 611.05,387.00C611.63,387.00 613.50,387.72 615.20,388.60C617.44,389.76 620.20,390.10 625.10,389.82C628.84,389.61 632.20,389.14 632.57,388.76C632.94,388.39 632.98,387.39 632.65,386.54C632.20,385.37 630.49,385.00 625.50,385.00C621.89,385.00 617.38,384.35 615.47,383.55C613.56,382.75 612.00,381.63 612.00,381.05C612.00,380.47 613.14,380.00 614.53,380.00C615.92,380.00 617.31,379.35 617.62,378.56C617.92,377.76 617.45,373.62 616.57,369.35C615.68,365.09 614.41,361.24 613.73,360.81C613.05,360.38 611.31,360.02 609.86,360.02C608.40,360.01 606.95,359.32 606.63,358.49C606.32,357.66 606.04,356.67 606.03,356.29C606.02,355.91 611.97,355.72 619.25,355.88C626.54,356.04 635.36,356.33 638.85,356.52C642.34,356.71 645.45,357.11 645.75,357.42C646.05,357.72 645.04,359.77 643.51,361.99C641.95,364.23 639.91,369.42 638.87,373.75C637.85,378.01 637.01,382.52 637.01,383.76C637.00,385.00 638.12,386.99 639.50,388.19C640.88,389.38 642.00,390.91 642.00,391.57C642.00,392.24 641.11,394.74 640.02,397.14C638.93,399.54 638.03,402.21 638.02,403.07C638.01,404.09 639.84,405.22 643.25,406.31C646.14,407.23 649.97,408.88 651.76,409.98C653.55,411.08 655.92,413.45 657.03,415.24C658.28,417.26 658.94,419.83 658.77,422.00C658.55,424.90 657.89,425.80 654.95,427.24C652.99,428.20 648.99,429.43 646.06,429.99C643.13,430.54 635.28,430.94 628.61,430.87zM450.19,425.98C452.22,425.99 454.18,425.52 454.54,424.93C454.90,424.35 454.95,423.62 454.65,423.32C454.35,423.01 452.11,422.54 449.68,422.27C446.79,421.94 445.00,422.19 444.50,423.00C444.08,423.69 444.35,424.61 445.12,425.10C445.88,425.58 448.16,425.98 450.19,425.98zM628.10,420.53C632.84,420.32 638.24,419.51 640.10,418.73C641.97,417.95 644.09,416.60 644.81,415.73C645.94,414.37 645.52,413.81 641.72,411.58C637.66,409.19 636.42,409.00 625.28,409.00C616.22,409.00 612.96,409.34 612.09,410.39C611.13,411.54 612.24,412.07 618.45,413.46C622.58,414.38 626.26,415.62 626.63,416.22C627.11,416.99 624.35,417.15 617.15,416.75C611.57,416.44 606.76,416.58 606.46,417.07C606.16,417.55 606.95,418.19 608.21,418.50C609.47,418.80 612.52,419.47 615.00,419.98C617.48,420.50 623.37,420.74 628.10,420.53zM392.88,404.05C393.77,403.57 395.85,401.73 397.50,399.96C399.15,398.19 402.26,395.45 404.40,393.87C406.55,392.29 409.56,391.00 411.10,391.00C412.68,391.00 414.31,391.73 414.83,392.67C415.67,394.17 416.43,393.99 422.27,390.97C428.77,387.59 428.77,387.59 432.94,389.47C435.22,390.50 437.34,391.74 437.63,392.22C437.93,392.70 437.61,393.77 436.92,394.59C435.91,395.81 435.95,396.38 437.12,397.54C438.37,398.79 439.45,398.80 445.21,397.60C448.87,396.83 452.30,395.93 452.84,395.60C453.38,395.27 454.39,392.75 455.10,390.00C455.80,387.25 456.74,385.00 457.17,385.00C457.61,385.00 459.16,386.80 460.62,389.00C462.07,391.20 463.63,393.00 464.08,393.00C464.52,393.00 465.52,392.09 466.30,390.98C467.09,389.86 468.34,389.21 469.11,389.54C469.87,389.86 471.85,391.87 473.50,394.01C475.15,396.15 477.06,397.93 477.75,397.95C478.48,397.98 479.00,396.76 479.00,395.00C479.00,393.07 479.51,392.00 480.42,392.00C481.21,392.00 483.17,393.11 484.78,394.47C486.40,395.83 488.01,396.66 488.36,396.31C488.71,395.95 489.00,394.84 489.00,393.83C489.00,392.58 489.74,392.00 491.31,392.00C492.59,392.00 494.92,393.35 496.50,395.00C498.08,396.65 499.74,398.00 500.19,398.00C500.63,398.00 501.00,396.68 501.00,395.06C501.00,393.44 501.37,391.89 501.83,391.61C502.28,391.32 504.35,392.49 506.43,394.20C509.46,396.70 510.37,397.03 511.08,395.90C511.57,395.13 511.98,393.49 511.98,392.25C511.99,391.01 512.46,390.00 513.02,390.00C513.58,390.00 516.00,391.80 518.38,394.00C520.77,396.20 523.01,398.00 523.36,398.00C523.71,398.00 524.00,395.88 524.00,393.29C524.00,388.58 524.00,388.58 528.81,393.31C531.45,395.92 533.93,397.74 534.31,397.36C534.69,396.98 535.00,394.94 535.00,392.83C535.00,390.63 535.49,389.00 536.14,389.00C536.76,389.00 539.32,390.89 541.82,393.19C544.33,395.50 546.48,396.96 546.60,396.44C546.73,395.92 547.12,393.81 547.46,391.75C547.81,389.69 548.50,388.00 549.01,388.00C549.51,388.00 551.76,389.91 554.00,392.24C557.35,395.72 558.25,396.22 559.03,394.99C559.54,394.17 559.98,392.97 559.98,392.32C560.00,391.47 560.89,391.39 563.16,392.05C564.90,392.54 567.29,393.86 568.47,394.98C569.66,396.09 571.16,397.00 571.81,397.00C572.47,397.00 573.00,395.84 573.00,394.42C573.00,393.01 571.24,388.85 569.08,385.17C566.93,381.50 563.44,376.87 561.33,374.87C559.22,372.87 556.52,370.73 555.32,370.12C554.11,369.50 551.86,369.02 550.32,369.04C548.77,369.05 546.43,369.67 545.11,370.39C543.80,371.12 543.13,371.95 543.61,372.23C544.10,372.51 546.28,373.06 548.47,373.45C550.65,373.85 553.57,374.77 554.97,375.50C556.36,376.23 559.04,378.44 560.93,380.40C562.82,382.36 564.13,384.20 563.86,384.48C563.58,384.76 561.36,383.98 558.92,382.74C554.84,380.67 553.23,380.51 538.00,380.60C528.92,380.66 512.50,381.03 501.50,381.42C490.50,381.82 475.95,381.76 469.16,381.30C459.48,380.64 456.14,380.75 453.66,381.82C451.52,382.74 448.24,383.01 443.50,382.65C439.65,382.36 432.90,381.44 428.50,380.60C424.10,379.76 416.67,379.05 411.99,379.03C407.31,379.02 401.98,379.43 400.15,379.96C398.31,380.48 394.78,382.58 392.29,384.61C389.81,386.65 387.02,389.57 386.08,391.10C385.02,392.85 384.54,395.22 384.80,397.44C385.03,399.40 385.77,401.00 386.45,401.00C387.13,401.00 388.49,401.89 389.47,402.97C390.73,404.36 391.73,404.68 392.88,404.05zM410.20,403.00C411.41,403.00 416.19,401.84 420.83,400.43C425.76,398.93 428.89,397.49 428.37,396.97C427.88,396.48 424.19,396.35 420.18,396.69C415.22,397.10 412.11,397.91 410.44,399.22C409.10,400.28 408.00,401.56 408.00,402.07C408.00,402.58 408.99,403.00 410.20,403.00zM390.25,398.00C389.56,398.00 389.00,397.53 389.00,396.96C389.00,396.40 389.68,394.89 390.51,393.63C391.34,392.36 394.21,389.90 396.90,388.16C399.58,386.42 402.28,385.00 402.89,385.00C403.50,385.00 404.00,385.41 404.00,385.92C404.00,386.43 401.19,389.35 397.75,392.42C394.31,395.48 390.94,397.99 390.25,398.00zM211.90,380.00C210.39,380.00 208.51,379.37 207.74,378.59C206.96,377.82 205.08,370.96 203.55,363.34C202.02,355.73 199.26,342.75 197.43,334.50C195.59,326.25 192.99,315.41 191.64,310.41C190.29,305.40 187.51,292.35 185.47,281.41C183.42,270.46 181.22,260.93 180.57,260.23C179.63,259.22 177.42,259.31 169.25,260.70C163.67,261.65 158.77,262.10 158.36,261.69C157.95,261.29 158.67,260.18 159.96,259.23C161.25,258.28 167.95,254.92 174.86,251.76C181.77,248.60 187.74,246.35 188.13,246.76C188.53,247.17 190.48,256.05 192.48,266.50C194.48,276.95 198.38,296.07 201.15,309.00C203.92,321.93 208.32,342.97 210.91,355.77C213.50,368.57 215.41,379.26 215.15,379.52C214.88,379.78 213.42,380.00 211.90,380.00zM566.75,367.90C568.35,367.97 569.00,367.44 569.00,366.06C569.00,364.99 567.18,361.21 564.95,357.66C562.73,354.11 560.64,349.53 560.30,347.47C559.79,344.31 560.06,343.46 562.09,341.93C564.48,340.13 564.48,340.13 562.40,337.31C561.26,335.77 558.45,333.45 556.16,332.18C553.87,330.90 552.00,329.44 552.00,328.95C552.00,328.45 553.80,327.12 556.00,326.00C558.20,324.88 560.00,323.61 560.00,323.18C560.00,322.75 559.46,321.86 558.80,321.20C558.14,320.54 555.74,320.00 553.47,320.00C550.53,320.00 548.00,320.89 544.65,323.11C542.08,324.81 539.30,327.16 538.48,328.33C537.67,329.49 537.00,331.44 537.00,332.66C537.00,333.88 537.56,335.23 538.25,335.67C538.94,336.10 540.30,336.32 541.28,336.16C542.26,336.00 544.62,336.38 546.53,337.01C548.44,337.64 550.00,338.78 550.00,339.55C550.00,340.32 548.73,341.61 547.18,342.41C545.62,343.21 542.92,345.21 541.17,346.84C539.13,348.75 538.21,350.38 538.60,351.41C539.07,352.61 540.63,353.00 545.05,353.00C548.26,353.00 551.13,353.40 551.43,353.88C551.73,354.37 550.64,355.32 549.00,356.00C547.36,356.68 544.44,358.98 542.51,361.12C540.58,363.26 539.00,365.45 539.00,366.00C539.00,366.55 539.17,367.00 539.38,367.00C539.59,367.00 541.37,366.32 543.35,365.50C545.32,364.68 548.86,364.02 551.22,364.05C553.57,364.08 557.52,364.94 560.00,365.95C562.48,366.96 565.51,367.84 566.75,367.90zM258.50,364.53C266.75,364.20 279.80,363.47 287.50,362.91C295.20,362.35 308.02,361.23 316.00,360.42C323.98,359.61 332.81,358.68 335.64,358.35C338.47,358.02 341.36,357.39 342.06,356.96C343.08,356.33 342.67,352.07 340.08,336.34C338.29,325.43 335.06,307.95 332.91,297.50C330.76,287.05 327.93,274.08 326.62,268.67C325.31,263.26 323.77,258.37 323.19,257.79C322.61,257.21 317.05,256.15 310.82,255.43C304.59,254.72 290.73,253.65 280.00,253.07C269.27,252.49 251.16,252.01 239.75,252.01C219.00,252.00 219.00,252.00 219.00,254.69C219.00,256.17 223.07,277.66 228.04,302.44C233.01,327.22 237.97,351.08 239.06,355.45C240.14,359.82 241.59,363.79 242.27,364.26C242.94,364.74 250.25,364.86 258.50,364.53zM627.60,354.00C620.36,354.00 617.78,353.63 616.58,352.44C615.72,351.58 614.29,348.36 613.40,345.29C611.96,340.34 611.94,339.61 613.27,338.87C614.10,338.40 615.07,336.88 615.42,335.47C615.77,334.07 616.45,333.16 616.94,333.46C617.42,333.76 618.53,333.74 619.39,333.40C620.57,332.95 620.72,332.35 619.98,330.97C619.44,329.96 619.00,327.98 619.00,326.57C619.00,324.52 619.49,324.00 621.40,324.00C623.17,324.00 624.08,324.79 624.85,327.00C625.55,329.02 626.57,330.00 627.95,330.00C629.08,330.00 630.00,329.60 630.00,329.12C630.00,328.63 631.18,327.46 632.63,326.51C634.77,325.11 635.40,325.04 636.08,326.13C636.61,326.98 636.20,328.23 634.95,329.55C633.88,330.69 633.00,332.15 633.00,332.78C633.00,333.42 633.68,333.68 634.51,333.36C635.34,333.04 636.69,333.33 637.51,334.01C638.33,334.69 639.00,336.06 639.00,337.06C639.00,338.05 638.10,339.15 637.01,339.50C635.91,339.84 634.49,339.81 633.85,339.41C633.13,338.96 632.96,339.13 633.40,339.85C633.80,340.48 635.40,341.00 636.96,341.00C639.73,341.00 639.79,341.12 639.26,345.25C638.96,347.59 638.34,350.51 637.88,351.75C637.10,353.87 636.49,354.00 627.60,354.00zM626.72,325.00C625.96,325.00 625.03,324.70 624.67,324.33C624.30,323.97 624.01,322.50 624.02,321.08C624.02,319.66 624.63,316.77 625.37,314.65C626.71,310.80 626.71,310.80 628.90,314.33C630.94,317.64 630.99,318.10 629.59,321.43C628.77,323.40 627.48,325.00 626.72,325.00zM496.75,318.24C495.61,319.72 495.08,319.65 490.82,317.45C488.24,316.12 485.89,314.62 485.58,314.12C485.27,313.62 486.55,309.84 488.44,305.71C490.32,301.58 492.34,297.91 492.93,297.54C493.64,297.11 494.00,298.61 494.00,301.98C494.00,305.11 494.77,308.60 496.00,311.00C497.10,313.16 498.00,315.30 498.00,315.77C498.00,316.24 497.44,317.35 496.75,318.24zM476.20,297.00C477.77,297.00 480.52,296.39 482.30,295.65C484.08,294.91 487.04,292.58 488.88,290.49C491.79,287.17 492.16,286.14 491.76,282.55C491.50,280.28 490.50,276.75 489.53,274.71C488.56,272.67 487.14,271.00 486.36,271.00C485.59,271.00 482.56,273.48 479.63,276.50C475.81,280.44 473.55,282.00 471.65,282.00C470.19,282.00 469.00,282.17 469.00,282.38C469.00,282.59 469.68,284.37 470.50,286.35C471.32,288.32 472.00,291.23 472.00,292.80C472.00,294.38 472.30,295.97 472.67,296.33C473.03,296.70 474.62,297.00 476.20,297.00zM442.33,269.99C440.95,270.00 439.46,268.83 438.21,266.75C437.14,264.96 435.98,262.34 435.65,260.92C435.05,258.33 435.05,258.33 443.27,258.79C447.80,259.04 452.16,259.60 452.97,260.03C454.11,260.64 453.33,261.84 449.47,265.40C446.73,267.92 443.52,269.98 442.33,269.99z" />

</svg>